<svg version="1.1" id="Layer_1" xmlns="http://www.w3.org/2000/svg" xmlns:xlink="http://www.w3.org/1999/xlink" x="0px" y="0px"
	 width="100%" viewBox="0 0 1024 1024" enable-background="new 0 0 1024 1024" xml:space="preserve">
<path fill="#000000" opacity="1.000000" stroke="none" 
	d="
M844.067932,638.986145 
	C822.001770,677.249023 800.372925,715.344116 778.134155,753.079651 
	C762.233521,780.060547 747.824707,807.865540 731.985046,834.869446 
	C730.052002,838.164917 728.291199,841.703796 725.725342,844.453125 
	C721.692200,848.774780 716.394104,850.191956 710.349670,850.186218 
	C604.351868,850.086182 498.354065,850.125916 392.356232,850.131226 
	C367.856720,850.132507 343.346283,849.685364 318.862579,850.304077 
	C307.499695,850.591309 300.334076,845.968323 295.043091,836.517395 
	C284.873108,818.351501 274.431396,800.337708 264.090851,782.267395 
	C243.573532,746.412903 223.003098,710.588867 202.537292,674.705017 
	C173.656433,624.066711 144.828110,573.398315 116.036812,522.708984 
	C111.688469,515.053406 106.764175,507.730042 103.360085,499.520142 
	C100.818047,493.389221 101.775635,487.987488 104.743279,482.348389 
	C113.129768,466.412415 122.751846,451.201263 131.742188,435.620972 
	C152.137344,400.276154 172.273361,364.781799 192.680115,329.443756 
	C210.423569,298.717743 228.608765,268.245483 246.202942,237.435043 
	C263.300262,207.494659 280.119171,177.389053 296.577271,147.093597 
	C301.745758,137.579666 308.610016,133.867722 319.391907,133.886505 
	C448.555511,134.111496 577.719788,134.060608 706.883606,133.896805 
	C716.195801,133.885010 722.199768,137.683167 726.532532,145.630951 
	C740.011353,170.355881 755.011230,194.202866 769.052917,218.601425 
	C810.018066,289.781799 852.167419,360.275513 892.534180,431.803009 
	C902.195068,448.921509 912.177368,465.865143 922.343262,482.688873 
	C926.283752,489.210083 925.897461,494.996124 922.254761,501.383057 
	C896.179688,547.102722 870.232239,592.895203 844.067932,638.986145 
M839.213318,607.767517 
	C858.949158,570.704590 880.286682,534.557678 901.903442,498.576752 
	C903.990540,495.102783 904.191589,492.592010 902.186401,489.093506 
	C872.623779,437.514099 843.417786,385.729156 813.651855,334.267853 
	C779.717468,275.600128 744.740295,217.538574 711.219604,158.628708 
	C709.438049,155.497757 707.274353,154.244568 703.632507,154.293320 
	C687.826111,154.504974 672.012024,155.101410 656.223083,155.143906 
	C545.910522,155.440872 435.596588,155.366882 325.283722,155.119446 
	C318.003632,155.103119 313.837097,157.143402 310.361725,163.647324 
	C300.946503,181.267441 290.845093,198.523132 280.912231,215.863998 
	C249.206833,271.215363 217.623840,326.637909 185.658997,381.839203 
	C165.295914,417.005035 144.918365,452.160004 124.871971,487.507629 
	C122.500298,491.689575 122.249428,495.054901 124.819916,499.439941 
	C134.756638,516.391052 144.135193,533.668152 153.928146,550.705017 
	C181.813034,599.216919 209.798538,647.670959 237.745926,696.146912 
	C262.120392,738.425415 286.595154,780.646790 310.742859,823.054443 
	C313.625610,828.117004 316.806854,829.840088 322.501465,829.832581 
	C449.811493,829.663879 577.121826,829.644775 704.431824,829.770935 
	C709.609619,829.776062 712.620483,828.169922 715.169983,823.730408 
	C729.767334,798.311768 744.743835,773.110657 759.328674,747.684814 
	C785.929504,701.311401 812.346252,654.832458 839.213318,607.767517 
z"/>
<path fill="#000000" opacity="1.000000" stroke="none" 
	d="
M712.269897,543.730225 
	C706.898193,543.766846 702.307312,546.006226 697.388733,546.694641 
	C688.215271,547.978577 678.360352,549.397705 671.074341,542.865051 
	C664.381470,536.864197 659.730347,538.111572 653.924622,543.075928 
	C651.980408,544.738403 649.273865,545.664795 646.771606,546.491272 
	C637.426697,549.578003 629.085449,543.664856 628.666992,533.865662 
	C628.236755,523.789429 630.631104,514.046509 632.071472,504.191223 
	C632.766296,499.437164 633.487732,494.684845 634.329956,489.955383 
	C634.785767,487.395569 633.399780,486.496460 631.320740,486.484894 
	C620.156677,486.422882 608.991760,486.420929 597.827820,486.500854 
	C593.936096,486.528687 593.110474,489.576263 592.458374,492.582214 
	C589.251770,507.362640 585.444153,521.990417 581.363403,536.550049 
	C577.747437,549.451233 573.158752,550.816223 562.794983,541.826233 
	C558.092957,543.740662 554.192444,548.300537 548.327820,547.289917 
	C542.098450,546.216370 541.434143,539.636475 537.384399,536.012573 
	C534.842773,536.900818 533.087585,538.961304 531.196350,540.708008 
	C524.537354,546.858093 516.583069,548.419556 507.977020,547.218872 
	C501.297485,546.286926 496.997009,542.050171 494.546814,535.651917 
	C490.859589,537.021301 488.386536,539.542053 485.548370,541.437378 
	C481.045959,544.443970 476.241302,546.590515 470.862915,547.338013 
	C461.470612,548.643311 454.451996,545.695435 451.834076,535.721069 
	C430.813904,550.407227 430.813904,550.407227 418.049347,535.797668 
	C415.945312,537.571045 413.763824,539.298828 411.706787,541.163879 
	C405.111237,547.143738 397.187225,548.376648 388.828979,547.158081 
	C380.867706,545.997437 374.497711,538.606689 373.910675,529.308716 
	C372.590546,508.400024 381.833038,492.315887 398.101990,480.046967 
	C403.098511,476.279022 409.310303,475.141113 415.693573,475.612793 
	C417.592377,475.753113 419.492950,476.032837 420.825134,477.263031 
	C423.702301,479.919891 426.536835,480.716125 430.627747,479.914978 
	C435.259918,479.007874 437.768829,482.696564 436.789062,487.491669 
	C434.730255,497.568054 432.525269,507.620331 430.763702,517.749207 
	C429.922791,522.584290 429.352783,527.671387 433.455505,532.764648 
	C440.680725,525.469299 450.060120,520.601685 451.747131,509.032806 
	C452.815308,501.707581 454.883759,494.528259 456.471710,487.426025 
	C454.936707,486.057251 453.314026,486.276794 451.924591,486.457123 
	C446.999573,487.096405 445.895111,484.138855 445.750916,480.221802 
	C445.586823,475.764221 448.214447,474.606445 452.168213,474.631012 
	C461.010284,474.685974 460.164398,475.995972 463.506378,466.334808 
	C466.334381,458.159302 469.152069,449.979919 472.053101,441.830261 
	C472.775940,439.799683 473.663910,437.799316 474.718567,435.921295 
	C476.932983,431.978027 481.065582,430.382690 484.904480,432.056976 
	C489.085785,433.880676 488.976196,437.686249 487.937347,441.046509 
	C486.023560,447.236908 483.447144,453.219879 481.243988,459.324341 
	C479.561737,463.985596 478.029327,468.700928 476.213654,474.027557 
	C482.299988,475.227631 487.913116,474.546570 493.445862,474.643341 
	C497.772369,474.719055 499.291504,476.723785 499.391846,480.811554 
	C499.490967,484.849274 498.000214,486.580566 493.839874,486.430328 
	C488.014954,486.220032 482.174957,486.465881 476.343781,486.370819 
	C473.807739,486.329437 472.149017,487.262695 471.509735,489.718323 
	C468.877350,499.830170 465.387665,509.773193 465.333344,520.401489 
	C465.326569,521.730103 465.325714,523.086792 465.568695,524.384277 
	C467.294250,533.597412 470.904602,535.297424 478.626801,530.110168 
	C486.718842,524.674438 493.174683,518.340149 496.002502,508.063660 
	C499.661316,494.767242 508.399109,484.482574 520.994812,478.327118 
	C528.236816,474.788025 535.931274,473.189758 542.850525,479.597900 
	C544.378601,481.013123 545.903198,480.132721 547.526794,479.862122 
	C553.930969,478.794891 556.819397,482.012573 555.652466,488.305115 
	C553.447327,500.196075 549.296143,511.745605 549.341187,524.036926 
	C549.352234,527.063660 549.751953,529.915771 551.844238,532.477661 
	C555.700989,530.975098 557.679199,527.693787 560.518494,525.511353 
	C573.026367,515.897217 574.852356,501.538910 577.622681,487.557465 
	C582.073975,465.092102 586.088745,442.550446 589.690430,419.933777 
	C589.950195,418.302612 590.326233,416.637421 590.979553,415.131866 
	C592.549744,411.513519 595.809875,411.408234 599.051514,411.768707 
	C602.359009,412.136536 603.385254,414.468994 603.328186,417.471130 
	C603.049377,432.136871 600.792786,446.601044 598.869385,461.099152 
	C598.673462,462.576019 598.455383,464.052856 598.339050,465.536896 
	C597.702332,473.659302 597.713074,473.585114 606.200134,473.689026 
	C614.844116,473.794830 623.511536,473.180573 632.120911,474.578583 
	C635.397949,475.110718 637.198059,473.935974 637.937500,470.252106 
	C641.366882,453.166290 645.075745,436.135834 648.796936,419.110107 
	C649.348877,416.584747 649.727234,413.811462 652.435120,412.303833 
	C657.520325,409.472717 663.200684,412.709961 663.316895,418.678253 
	C663.532288,429.745148 660.971191,440.478729 658.936646,451.236023 
	C654.405273,475.194977 648.617126,498.920197 645.602966,523.157715 
	C645.244019,526.044189 644.664978,529.080200 646.272888,531.843933 
	C653.681702,530.644958 657.497437,526.261047 657.678101,519.368408 
	C658.141846,501.681702 666.935852,488.852722 681.493347,479.650604 
	C685.963684,476.824738 691.021423,475.938629 696.373230,477.061127 
	C709.814087,479.880280 712.139099,492.181519 708.483398,504.460510 
	C706.978699,509.514343 703.846680,513.528137 699.499268,516.722778 
	C692.500488,521.865906 684.573303,525.373779 676.733459,529.773560 
	C679.702881,533.868591 683.765137,535.356018 687.788818,534.193237 
	C698.190918,531.187317 708.904297,529.664673 719.360596,526.946167 
	C724.251587,525.674622 725.576904,521.266907 728.705383,518.496887 
	C732.691589,514.967468 732.036621,511.180908 730.649414,506.837158 
	C728.780640,500.985504 727.139038,495.045837 725.738464,489.064667 
	C724.440247,483.520416 725.807129,480.743561 729.652649,479.823853 
	C734.368164,478.696075 738.773193,480.997498 740.341248,485.642883 
	C741.721313,489.731079 742.825806,493.911621 744.111389,498.032867 
	C744.344727,498.780945 744.864807,499.439575 745.217957,500.077057 
	C748.570068,500.107635 750.107971,497.655060 751.978394,495.899200 
	C757.808044,490.426697 763.500916,484.808685 769.285217,479.287262 
	C772.139526,476.562622 775.025085,475.357056 778.268250,478.950226 
	C781.361816,482.377838 780.955627,485.131622 777.766541,488.380219 
	C769.718994,496.578064 761.096191,504.209625 753.661011,513.024170 
	C751.832581,515.191711 751.641724,516.775574 752.899841,519.186218 
	C754.760559,522.751160 756.676331,526.254089 759.419617,529.204346 
	C763.534119,533.629395 768.012512,534.347351 772.691223,530.559021 
	C777.458252,526.699219 781.610413,522.087646 786.132019,517.913818 
	C788.431580,515.791260 790.866821,513.115784 794.265503,516.133545 
	C797.732117,519.211548 798.335266,524.181274 795.395264,527.267578 
	C790.687256,532.209839 786.046814,537.313599 780.763000,541.589355 
	C770.309448,550.048523 753.570862,551.309143 743.779541,535.443909 
	C742.479614,533.337708 741.151611,531.248779 739.329773,528.343567 
	C735.457520,533.051575 731.950745,537.350708 728.405518,541.617859 
	C722.325623,548.935791 720.339111,549.211731 712.269897,543.730225 
M412.877777,516.422607 
	C415.480743,510.839081 417.902832,505.178925 419.303650,499.158539 
	C420.210205,495.262360 420.326691,491.363495 416.390442,488.919983 
	C412.609131,486.572662 409.106567,488.401978 406.331451,490.811829 
	C395.643311,500.093018 389.821503,511.861450 389.384552,526.104553 
	C389.273407,529.728088 390.014557,533.349060 393.718994,534.936523 
	C397.556824,536.581116 400.429840,533.959106 402.918243,531.557617 
	C407.157440,527.466431 409.991302,522.348206 412.877777,516.422607 
M538.703308,496.410645 
	C538.424744,488.194885 533.489990,485.562836 526.483887,489.854828 
	C522.542603,492.269318 519.886047,495.909576 517.344604,499.580139 
	C511.466583,508.069427 507.498383,517.216797 508.317352,527.888855 
	C508.549347,530.911499 509.604034,533.361389 512.303833,534.894104 
	C515.241455,536.561890 517.372131,534.529846 519.522888,533.099060 
	C521.893555,531.522034 523.766418,529.359192 525.354858,527.019531 
	C531.555237,517.886597 536.243347,508.064697 538.703308,496.410645 
M688.607666,507.116058 
	C692.411255,503.351440 696.329529,499.630920 695.654358,493.556946 
	C695.171082,489.209625 692.504517,487.791687 688.837341,490.034698 
	C682.680420,493.800507 678.546875,499.317627 675.676758,505.839539 
	C674.155151,509.297119 672.485535,512.754822 673.654419,516.739807 
	C678.461121,515.958801 682.162537,513.610168 688.607666,507.116058 
z"/>
<path fill="#000000" opacity="1.000000" stroke="none" 
	d="
M344.106537,415.629150 
	C366.911194,424.179626 375.796570,442.130066 377.143372,464.355774 
	C378.389587,484.922394 372.021484,503.935211 360.546570,520.807983 
	C349.772400,536.650513 333.943359,544.884216 314.999634,547.378479 
	C305.029816,548.691040 295.149811,548.832947 285.300659,546.600098 
	C282.518555,545.969360 279.881989,544.962891 277.457184,543.464294 
	C274.024689,541.342957 272.297729,538.525330 273.292847,534.261536 
	C278.271667,512.928955 283.140839,491.570892 288.081604,470.229431 
	C291.142059,457.010040 294.261414,443.804352 297.548431,429.763397 
	C289.548889,432.004913 283.884491,436.314056 278.829926,441.604736 
	C278.257690,442.203674 277.831757,442.940460 277.275269,443.556702 
	C275.939697,445.035706 274.652252,446.833893 272.296875,446.151215 
	C269.617249,445.374512 268.921783,442.948303 268.803284,440.636017 
	C268.434265,433.436859 271.362061,427.689178 277.220490,423.532318 
	C285.237793,417.843567 294.310883,414.475159 303.867004,412.779541 
	C317.311188,410.394043 330.694794,410.933258 344.106537,415.629150 
M327.538635,529.026672 
	C331.677582,527.184448 335.670197,524.979309 338.763672,521.685303 
	C357.230194,502.021667 362.705353,478.706451 357.866882,452.562561 
	C354.339355,433.502228 338.313049,424.133057 320.931915,424.270996 
	C317.564850,424.297729 316.172638,425.633850 315.504883,428.660675 
	C308.102936,462.213043 299.605499,495.502441 291.238892,528.820923 
	C290.102539,533.346252 291.803802,534.448547 295.717743,534.666687 
	C306.514984,535.268494 316.934998,533.793213 327.538635,529.026672 
z"/>
<path fill="#000000" opacity="1.000000" stroke="none" 
	d="
M303.416992,233.482147 
	C304.623260,231.648438 305.542511,230.050766 306.666382,228.613068 
	C310.789612,223.338516 315.378754,223.087097 320.137634,227.710831 
	C322.822510,230.319473 323.557953,233.021530 321.893463,236.646423 
	C317.295135,246.660385 311.750549,256.151520 306.037018,265.525726 
	C284.021454,301.646698 264.222870,339.015564 243.508865,375.870483 
	C222.551117,413.159088 201.160812,450.204620 179.938950,487.344604 
	C178.951065,489.073517 177.879333,490.782379 176.637375,492.332916 
	C173.033173,496.832581 169.886536,497.421539 164.864182,494.716248 
	C160.499634,492.365326 159.662018,489.808472 161.696152,484.179749 
	C164.775620,475.658417 169.974487,468.248993 174.381271,460.427246 
	C200.448395,414.159637 226.440384,367.849335 252.653641,321.664642 
	C269.334961,292.274048 286.355499,263.076019 303.416992,233.482147 
z"/>
<path fill="#000000" opacity="1.000000" stroke="none" 
	d="
M306.239471,303.318054 
	C308.962555,298.496002 311.858551,294.243683 315.180786,290.269806 
	C318.489960,286.311523 322.564453,285.517334 326.412933,288.222137 
	C330.060394,290.785645 331.111694,294.984100 328.516724,299.060425 
	C315.006378,320.282959 303.683167,342.742645 291.803680,364.853607 
	C277.072601,392.272156 260.392273,418.552734 245.702225,445.977478 
	C242.806549,451.383392 239.867874,456.851105 235.723526,461.470795 
	C231.950302,465.676849 227.504990,466.730347 223.819092,464.353180 
	C219.220795,461.387604 220.353287,457.221710 221.883987,453.232727 
	C227.047852,439.775665 235.496231,428.107971 242.545959,415.676819 
	C263.723297,378.333740 284.884521,340.981476 306.239471,303.318054 
z"/>
<path fill="#000000" opacity="1.000000" stroke="none" 
	d="
M716.831665,719.871094 
	C732.611694,692.438232 748.148315,665.286987 763.882568,638.250732 
	C768.565918,630.203308 772.220703,621.534241 777.997559,614.147949 
	C782.041321,608.977600 785.912109,608.459534 790.888733,612.033447 
	C794.159973,614.382629 795.327026,617.375916 793.485413,621.136719 
	C791.803528,624.571228 790.108337,628.008911 788.213623,631.327942 
	C763.879211,673.953613 739.537842,716.575378 715.103271,759.143555 
	C712.459778,763.748779 709.305847,768.072144 706.231506,772.414917 
	C704.203186,775.279907 701.502930,776.922913 697.708008,776.512512 
	C693.968079,776.107971 692.000549,774.307617 691.664001,770.533752 
	C691.232971,765.700500 692.407532,761.244019 694.807739,757.144409 
	C702.037598,744.796021 709.370911,732.508118 716.831665,719.871094 
z"/>
<path fill="#000000" opacity="1.000000" stroke="none" 
	d="
M697.929565,204.122040 
	C702.142639,211.142410 706.120483,217.879395 710.201538,224.553284 
	C712.069946,227.608704 712.730957,230.469666 710.734375,233.851181 
	C704.726990,244.025345 698.863647,254.285904 693.056641,264.576263 
	C691.259766,267.760529 688.929260,269.095154 685.145996,269.521332 
	C674.678528,270.700531 664.185120,269.853027 653.737244,270.568512 
	C649.281799,270.873596 645.963806,269.517059 643.755981,265.633942 
	C637.837830,255.225327 631.855591,244.851746 626.072754,234.368332 
	C623.942749,230.506989 625.041199,226.586548 627.054260,222.960678 
	C632.061523,213.942093 637.141541,204.963928 642.185547,195.965759 
	C643.433960,193.738663 644.731750,191.804306 647.750061,191.635483 
	C660.021423,190.949127 672.244080,190.004501 684.577332,191.390915 
	C688.941772,191.881516 691.696472,193.209686 693.618652,196.969879 
	C694.827454,199.334610 696.353027,201.537399 697.929565,204.122040 
M650.994568,247.605621 
	C653.444214,254.252945 658.394043,256.330994 665.122925,255.698349 
	C668.747986,255.357529 672.438660,255.478745 676.085083,255.669495 
	C679.508545,255.848602 681.865967,254.381699 683.453857,251.565033 
	C687.043579,245.197449 690.478516,238.741928 694.115845,232.402176 
	C695.349487,230.251953 695.240112,228.427887 694.017273,226.371902 
	C690.960876,221.233246 688.036926,216.015991 685.007019,210.861343 
	C683.042664,207.519409 680.129028,205.858795 676.229309,206.643280 
	C673.405884,207.211197 670.586609,207.102844 667.787048,206.903442 
	C658.169312,206.218353 649.873840,207.719360 646.787842,218.659393 
	C646.613831,219.276337 646.190247,219.859558 645.770264,220.364929 
	C640.468079,226.744797 640.517883,232.962219 645.917969,239.356659 
	C647.822449,241.611816 649.059082,244.431061 650.994568,247.605621 
z"/>
<path fill="#000000" opacity="1.000000" stroke="none" 
	d="
M286.062286,611.699280 
	C288.101898,610.355713 290.028961,609.884827 292.052643,609.872437 
	C303.203735,609.804260 314.355194,609.710938 325.506165,609.745728 
	C328.814514,609.756042 331.642090,610.958801 333.459656,614.017151 
	C339.153778,623.598267 344.883881,633.158142 350.632446,642.706787 
	C353.282898,647.109314 353.050964,651.290344 350.697998,655.881653 
	C346.072418,664.907471 340.210724,673.260315 336.315796,682.680908 
	C334.632080,686.753418 330.977997,688.069519 326.962799,688.126404 
	C315.147552,688.293945 303.329651,688.269470 291.512909,688.338684 
	C288.120087,688.358521 285.819000,686.502563 284.251923,683.808411 
	C278.649872,674.176819 273.136108,664.493225 267.663940,654.787048 
	C265.470337,650.896179 265.372284,647.077576 267.781219,643.016602 
	C273.884369,632.728271 278.694092,621.689514 286.062286,611.699280 
M325.393921,670.996521 
	C329.856995,664.894104 332.692200,657.951538 335.702362,651.095215 
	C336.364563,649.586853 336.262848,648.251648 335.471497,646.830017 
	C331.911102,640.434204 328.474213,633.968323 324.830597,627.620789 
	C323.012695,624.453918 320.037323,622.799744 316.401947,623.595581 
	C312.097046,624.538025 307.746490,624.649902 303.485718,624.247742 
	C297.770630,623.708374 294.568085,626.076294 292.211823,631.068054 
	C289.228241,637.388794 285.665771,643.436279 282.263885,649.767273 
	C287.293213,656.243774 291.825592,663.212891 294.839172,671.040527 
	C295.724091,673.339172 297.295715,673.952881 299.479736,673.917908 
	C306.305542,673.808655 313.131592,673.685852 319.957886,673.658386 
	C321.959625,673.650269 323.445465,672.740356 325.393921,670.996521 
z"/>
<path fill="#000000" opacity="1.000000" stroke="none" 
	d="
M370.373657,634.441528 
	C373.814697,628.126343 377.141907,622.167114 380.290405,616.114990 
	C382.597870,611.679504 385.910767,609.579956 391.075897,609.703186 
	C401.392273,609.949219 411.720215,609.884094 422.040222,609.733276 
	C426.984894,609.661072 430.782684,611.417786 433.470001,615.518555 
	C438.944031,623.871582 444.280548,632.305847 449.104431,641.063049 
	C451.382751,645.199097 451.688812,649.065186 449.278046,653.287537 
	C443.425232,663.538696 437.733246,673.882141 432.026123,684.215820 
	C430.342285,687.264771 427.533325,688.068604 424.444275,688.105774 
	C413.457550,688.238037 402.469482,688.290405 391.481873,688.297729 
	C387.156586,688.300598 384.072449,686.449951 381.899048,682.453796 
	C376.894318,673.251587 371.693787,664.146362 366.265747,655.187744 
	C363.543823,650.695435 363.266968,646.650391 366.178864,642.235352 
	C367.729126,639.884888 368.861908,637.259094 370.373657,634.441528 
M421.608856,624.770569 
	C420.902924,624.360046 420.116516,623.498352 419.503387,623.607727 
	C412.074127,624.933289 404.575623,624.037842 397.124359,624.441895 
	C395.302856,624.540649 393.943695,625.596985 393.090790,627.064636 
	C389.079437,633.967285 385.176910,640.933105 381.202423,647.857361 
	C380.251465,649.514099 380.513550,650.941284 381.508331,652.497559 
	C385.182983,658.246582 388.806091,664.029297 392.385864,669.837952 
	C394.111084,672.637329 396.407654,674.028198 399.801880,673.891907 
	C405.288696,673.671570 410.786102,673.726807 416.278259,673.624512 
	C420.057953,673.554016 422.901703,672.165466 424.551422,668.427979 
	C427.305054,662.189392 430.280853,656.045837 433.295227,649.927429 
	C434.106323,648.281067 434.267395,646.935425 433.396667,645.260803 
	C429.867981,638.474365 426.586548,631.553528 421.608856,624.770569 
z"/>
<path fill="#000000" opacity="1.000000" stroke="none" 
	d="
M686.805359,331.127747 
	C683.360291,324.817963 680.188599,318.771942 676.798706,312.850769 
	C674.500244,308.835876 674.614563,304.990021 676.779663,301.046600 
	C681.666870,292.145416 686.587708,283.262207 691.408142,274.324921 
	C693.996643,269.525452 698.005554,267.650574 703.313904,267.707001 
	C712.973328,267.809662 722.635193,267.788422 732.295044,267.708008 
	C737.229797,267.666962 740.870117,269.512238 743.416138,273.874420 
	C748.702759,282.931915 754.171692,291.883118 759.583862,300.867096 
	C762.011169,304.896545 762.261902,308.608154 759.626709,312.943054 
	C754.009277,322.183685 748.844360,331.704620 743.667175,341.205139 
	C741.606995,344.985779 738.907349,346.513794 734.474731,346.478485 
	C724.837769,346.401642 715.169373,345.740295 705.550110,347.111633 
	C701.063232,347.751282 697.281006,346.217072 694.594910,342.557465 
	C691.939941,338.940247 689.512817,335.155792 686.805359,331.127747 
M725.916199,332.618713 
	C729.429321,332.670593 731.659607,330.837891 733.639099,328.042084 
	C738.086914,321.759888 741.064453,314.700470 744.765747,308.027039 
	C745.513855,306.678101 745.413086,305.605896 744.699402,304.324371 
	C741.385681,298.373657 738.064819,292.424744 734.890869,286.399139 
	C733.285339,283.351105 730.884216,282.183472 727.570312,282.351227 
	C720.946533,282.686646 714.320679,282.990875 707.693054,283.236267 
	C705.018616,283.335327 703.436401,284.865479 702.253662,287.005890 
	C698.960510,292.965759 695.701172,298.944336 692.405396,304.902740 
	C691.448914,306.631989 691.354797,308.086060 692.533325,309.946472 
	C695.819580,315.134369 699.046143,320.389526 701.839233,325.851807 
	C704.379822,330.820374 707.602295,333.593597 713.576843,332.760803 
	C717.329102,332.237732 721.210144,332.637787 725.916199,332.618713 
z"/>
<path fill="#000000" opacity="1.000000" stroke="none" 
	d="
M327.341827,701.402893 
	C330.882538,690.710999 338.013855,687.370728 348.630371,688.481384 
	C356.861816,689.342468 365.257294,688.762817 373.575836,688.607544 
	C377.438477,688.535400 380.209534,689.694885 382.216583,693.186584 
	C387.853119,702.992615 393.636658,712.715637 399.480865,722.399841 
	C401.914093,726.431824 401.637665,730.078125 399.236938,734.060730 
	C394.085480,742.606750 389.047607,751.229858 384.265045,759.986206 
	C381.557678,764.943176 377.600952,767.171509 372.158966,767.203430 
	C362.673096,767.259155 353.187195,767.323059 343.701233,767.330322 
	C338.803345,767.334106 335.105591,765.224670 332.691040,760.883789 
	C327.355499,751.291931 322.077332,741.665649 316.570282,732.172668 
	C314.089935,727.897034 314.508667,724.087585 316.914093,720.002563 
	C320.457550,713.984802 323.753479,707.821350 327.341827,701.402893 
M375.277374,744.922058 
	C377.987732,739.961853 380.677521,734.990234 383.417236,730.046326 
	C384.756622,727.629395 384.616730,725.433838 383.145966,723.043884 
	C379.572693,717.237427 376.106018,711.361267 372.757812,705.422241 
	C371.446014,703.095337 369.783691,702.138428 367.118225,702.311096 
	C360.653351,702.730042 354.178101,703.004944 347.703857,703.254517 
	C345.395081,703.343506 344.074738,704.675110 343.013428,706.463379 
	C339.365967,712.609314 335.756287,718.777893 332.074280,724.903015 
	C330.843781,726.950073 331.625610,728.738831 332.510437,730.556213 
	C335.651062,737.006531 339.616547,742.957397 343.570557,748.921570 
	C345.517731,751.858643 348.050720,753.111267 351.579742,752.772827 
	C355.873596,752.361023 360.262390,751.574585 364.479858,752.066650 
	C370.081085,752.720337 373.219910,750.619385 375.277374,744.922058 
z"/>
<path fill="#000000" opacity="1.000000" stroke="none" 
	d="
M641.979248,279.076050 
	C646.360474,286.579895 650.561035,293.768372 654.722656,300.979218 
	C656.402771,303.890472 656.709106,306.816986 655.182922,310.012848 
	C650.003357,320.858643 643.845215,331.137451 637.443848,341.285004 
	C635.107788,344.988159 631.967834,346.531189 627.435730,346.480804 
	C618.118530,346.377167 608.792786,346.034790 599.464600,346.915649 
	C593.588501,347.470520 588.965088,345.597351 586.341370,339.389587 
	C582.710999,330.799927 578.056458,322.636932 572.812500,314.931458 
	C569.118408,309.503357 569.168030,304.497894 572.193054,299.091187 
	C576.910278,290.659973 581.874512,282.353973 586.240662,273.744690 
	C588.484192,269.320953 591.914978,267.849976 596.264038,267.799377 
	C607.095154,267.673279 617.929749,267.668732 628.760925,267.794342 
	C635.990723,267.878174 638.700745,273.611786 641.979248,279.076050 
M615.366699,332.666565 
	C623.591675,333.839539 628.562073,329.764526 631.866882,322.683502 
	C633.907532,318.311218 636.244568,314.074188 638.531860,309.821259 
	C639.939026,307.204895 639.693359,304.838043 638.242737,302.279968 
	C635.205688,296.924347 632.384460,291.446747 629.443665,286.036011 
	C627.784546,282.983215 625.053528,280.989899 621.718933,281.568573 
	C616.069763,282.548981 610.429443,282.156708 604.789795,282.366943 
	C601.144165,282.502838 598.383484,283.862000 596.636658,287.147461 
	C595.542480,289.205261 594.723938,291.574493 593.148621,293.184570 
	C583.566772,302.977997 587.058472,311.568787 593.675842,321.641785 
	C599.055847,329.831268 604.467163,334.628723 615.366699,332.666565 
z"/>
</svg>